<svg xmlns="http://www.w3.org/2000/svg" width="200" height="200" class="icon" data-spm-anchor-id="a313x.7781069.0.i29" p-id="17891" t="1612865659784" version="1.1" viewBox="0 0 1024 1024"><path fill="#bfbfbf" d="M954.8 421.9c0-12.5-2.6-24.6-7.7-36.6-7.9-26.8-21.7-43.1-40.5-52.3-24.5-21.1-57.2-40-96.6-55.8 75-53.5 153.9-63.5 134.1-105.1-19.2-40.3-154.2 5.3-206.2 67.3-3.3 3.9-6.5 7.9-9.5 12-64.6-16-139.1-25.2-218.6-25.2-173.1 0-323 43.5-396.6 107-18.8 9.2-32.6 25.5-40.5 52.3-5.1 11.8-7.7 24.1-7.7 36.6 0 3.2 0.2 6.3 0.5 9.5-0.4 6.2-0.5 12.5-0.5 19.2 0 229.9 199.3 416.4 445 416.4 245.8 0 445-186.4 445-416.4 0-6.7-0.2-13.2-0.5-19.2 0.1-3.3 0.3-6.5 0.3-9.7z m-445.1 141c-202.5 0-366.7-63-366.7-141 0-77.8 164.1-141 366.7-141 68.1 0 131.9 7.2 186.6 19.5-26.2 46.1-43.7 89.4-60.6 101.8-54.7 39.8-90.8 6.2-177.8 51.9-87 45.6-88.4 54.6-88.4 54.6S516 520.2 597 513.5c89.1-7.2 87-5.3 83.8-20.1-9.5-44.2 29-112.1 76.1-168 1.8-1.9 3.5-4 5.1-6 70.4 25.7 114.3 62 114.3 102.3 0.1 78.2-164.1 141.2-366.6 141.2z m0 0" class="selected" data-spm-anchor-id="a313x.7781069.0.i28" p-id="17892"/></svg>