<svg xmlns="http://www.w3.org/2000/svg" width="200" height="200" class="icon" p-id="10583" t="1612864244806" version="1.1" viewBox="0 0 1024 1024"><path fill="#F6B352" d="M389.415269 806.232478c-8.94142-5.728475-11.465013-17.416217-5.961283-26.81015 5.505746-8.479837 17.422264-11.459974 26.586413-5.961283 14.669895 9.397965 30.707408 16.505144 47.439312 21.549306 16.271329 4.810347 33.688553 7.33394 51.566354 7.33394 18.333337 0 35.294018-2.523592 51.793115-7.33394 16.500104-5.044162 32.546688-12.151342 47.673127-21.549306 8.707605-5.498691 20.63017-2.518554 26.352598 5.961283 5.500707 9.398973 2.980138 21.081675-5.955235 26.81015-17.883848 11.231198-36.902506 20.168586-57.527637 26.129869-20.168586 5.955235-41.027532 8.708612-62.335968 8.708612-21.092761 0-42.16839-2.753377-62.337984-8.708612C426.540504 826.407111 407.289039 817.463676 389.415269 806.232478L389.415269 806.232478 389.415269 806.232478zM510.882323 16.459791 510.882323 16.459791c57.749358 0 107.262773 43.31227 115.965339 100.378323 5.960275-1.830209 11.917526-2.518554 18.106577-2.518554 20.858946 0 39.653867 8.936381 53.400595 22.459371 6.873364 7.10718 12.829607 15.588023 16.954633 25.212748 5.505746-1.60748 11.466021-2.980138 17.655071-2.980138 18.562114 0 35.521786 8.252068 47.439312 19.941826 12.139248 12.378102 19.712041 29.104967 19.712041 47.899888 0 12.151342-3.208914 24.061813-9.169188 33.92136 5.038115 5.049201 9.625733 10.086309 13.525007 14.208311 67.146314 73.341413 96.029561 145.30513 104.510404 222.310992 8.479837 74.259541-2.519562 150.57706-15.354208 236.524343-7.11121 46.528239-13.295222 92.593886-13.751767 133.383572 0 39.187244 4.587618 75.860974 19.707002 107.719318 7.791492 16.04356 0.918128 35.06121-15.125432 42.635012-3.441721 1.830209-6.416819 2.513515-9.625733 2.975099-29.794319 4.810347-56.380733 4.353803-80.448592 0-26.357637-5.044162-49.507368-15.580968-67.836675-30.47964-22.003835-17.193488-37.357035-41.256308-44.236446-68.064443l-3.202866 1.367618c-51.570385 29.562519-110.248957 44.69299-169.600757 44.69299-60.050222 0-119.635836-16.04356-171.885495-46.066655l-0.456544 0c-23.149732 87.08814-114.591674 111.384776-193.661562 98.087538-17.650033-2.975099-29.561512-19.480242-26.814182-36.663652 0.690359-2.980138 1.840288-5.960275 2.752369-8.479837 14.897664-31.858344 19.941826-68.532074 19.941826-107.719318-0.456544-40.793716-6.645596-86.860373-13.525007-133.383572-13.290183-86.403827-21.998795-162.950122-11.916518-237.435416 10.086309-76.551334 40.560909-148.513035 107.257734-221.388833l1.835249-1.606472 9.169188-9.854509c-6.879411-10.538822-11.233214-23.149732-11.233214-36.67373 0-18.789882 7.567755-35.521786 19.945857-47.901904 11.912487-11.687742 28.878206-19.940818 47.206505-19.940818 6.422866 0 12.37911 1.373665 18.340392 2.980138 3.436682-9.625733 9.397965-18.105569 16.504136-25.212748l1.373665-1.373665c13.29623-12.605871 31.629567-21.081675 51.800169-21.081675 6.415811 0 12.378102 0.690359 18.333337 2.519562C402.929189 59.778109 452.437566 16.459791 510.882323 16.459791L510.882323 16.459791 510.882323 16.459791zM627.993559 262.376052 627.993559 262.376052c-77.007879-14.43608-157.901928-14.43608-234.912831 0-47.673127 8.94142-88.461805 17.644994-122.838703 54.540445l-1.378704 1.606472c-56.837277 62.337984-82.50657 122.840718-91.442951 186.327623-8.942427 66.008481-0.227769 137.970182 11.921557 219.104094 7.562716 48.356433 13.979536 96.491144 14.441119 143.013336 0 32.086112-2.752369 63.026328-10.543861 92.366117 57.293822-2.753377 113.220025-58.449796 74.25551-116.888506-77.462408-117.117283-23.150739-295.191829-17.650033-312.613085 0.227769-1.374673 0.688344-2.519562 1.606472-3.670497 3.892219-9.854509 15.581976-13.751767 25.207709-9.625733 6.872356 2.980138 13.295222 5.500707 19.257513 8.252068 54.545484 20.63017 102.447388 19.712041 142.096216 2.290785l0 0c39.421059-17.643986 71.506164-52.253691 93.966543-100.155595l0-0.918128c2.980138-5.727468 5.504738-12.139248 7.790484-19.018658l0.227769 0 0.466623-1.601434c2.513515-6.649626 9.392926-27.046989 9.847454-50.191681 0.228777-10.770622 9.171204-18.789882 19.714057-18.789882s19.023698 8.935373 18.794921 19.480242c-0.461584 25.896054-6.422866 47.904927-10.087317 57.988213 17.644994 44.919751 38.270124 81.132905 66.008481 109.554567 28.87619 29.104967 66.457971 50.414411 118.251086 63.938409 6.877395 2.069064 12.383141 8.0243 13.751767 15.126439 13.29623 71.045588 17.650033 144.385993-15.3532 209.937929-29.105975 58.894247-32.314888 130.401419 45.153566 144.614769 5.961283 1.373665 12.373063 2.296832 19.251466 2.296832-7.796531-29.344829-10.547892-60.280006-10.315085-92.366117 0.22273-46.522192 7.106172-94.650857 13.979536-143.013336 12.383141-81.355634 22.915916-153.779926 15.587015-219.787399-7.10718-63.260144-31.174031-123.762878-88.011308-185.643309C720.815213 279.102916 683.224363 272.462361 627.993559 262.376052L627.993559 262.376052 627.993559 262.376052zM510.882323 55.879844 510.882323 55.879844c-43.548101 0-78.83708 35.065242-78.83708 78.384567l0.456544 5.498691-0.456544 0 0.456544 0.227769 0.456544 5.271931c0.456544 5.498691-0.91712 11.233214-5.038115 16.048599-6.879411 7.556669-19.257513 8.47379-27.047997 1.144889-3.440713-2.980138-6.872356-5.044162-10.542853-6.184012l-0.913089-0.461584c-4.126034-1.830209-8.484875-2.518554-13.295222-2.518554-9.625733 0-18.335353 3.669489-24.751164 9.625733l-0.923168 0.91712c-6.41178 6.650634-10.537814 16.048599-10.537814 26.129869l-0.461584 0c0.461584 5.038115-1.373665 10.310046-4.582578 13.525007-7.3289 8.475805-19.707002 8.930334-27.504541 2.290785-2.518554-2.752369-5.042146-4.126034-7.785445-5.270923l-1.150935-0.228777c-2.975099-1.373665-6.645596-2.291793-10.309038-2.291793-7.790484 0-14.664856 3.436682-19.70801 8.480845-5.500707 5.038115-8.712644 12.378102-8.712644 20.397363 0 7.10718 2.752369 13.522991 6.877395 18.333337 3.431643 4.127042 8.241989 7.10718 13.291191 8.714659 33.003232-12.600831 68.525019-22.921963 106.111838-29.566551 81.81621-15.354208 167.98723-15.354208 249.125173 0 37.585811 6.644588 73.341413 16.96572 106.345653 29.566551 5.042146-1.601434 10.081269-4.581571 13.290183-8.714659 4.122003-4.810347 6.645596-11.226159 6.645596-18.333337 0-8.019261-2.980138-15.3532-8.0243-20.397363-5.044162-5.044162-12.378102-8.480845-20.391315-8.480845-3.441721 0-7.11121 0.923168-10.087317 2.291793l-0.231799 0c-2.748338 0.91712-5.957251 2.74733-8.703573 5.498691l0 0c-3.441721 2.753377-8.252068 5.044162-13.295222 4.583586-10.082277 0-18.796937-8.480845-18.796937-19.023698l0-1.374673c0-10.081269-4.353803-19.479234-10.999398-26.129869l0.456544 0-0.456544 0c-6.41178-6.417827-15.581976-10.537814-25.896054-10.537814-4.587618 0-8.937389 0.688344-13.062415 2.518554-4.119987 1.149927-8.0243 3.670497-11.460981 6.650634-3.897258 3.897258-9.620693 5.498691-15.587015 4.810347-10.542853-1.373665-17.876793-10.999398-16.503128-21.776067l0.694391-5.038115 0-0.690359 0.228777-5.498691C589.266889 90.946093 553.961785 55.879844 510.882323 55.879844L510.882323 55.879844 510.882323 55.879844zM740.983799 621.050753 740.983799 621.050753c-52.483474-15.126439-92.132303-38.731708-123.756831-71.045588-24.289581-24.295628-43.552132-53.173835-59.817414-88.466845-25.440517 46.982768-60.734534 81.81621-103.821053 100.839907-48.590248 22.003835-106.802197 22.916924-171.20219-1.373665l-1.373665-0.456544c-22.232611 85.486707-30.484679 181.972812 20.397363 249.347903 46.5232 60.969358 132.470482 93.97259 208.097641 93.97259C698.354834 903.869519 766.88086 776.897728 740.983799 621.050753L740.983799 621.050753 740.983799 621.050753zM400.415674 630.448718 400.415674 630.448718c17.876793 0 32.541648 14.441119 32.541648 32.31892 0 17.878808-14.669895 32.542656-32.541648 32.542656-17.422264 0-32.092159-14.669895-32.092159-32.542656C368.324523 644.884798 382.994418 630.448718 400.415674 630.448718L400.415674 630.448718 400.415674 630.448718zM617.683512 630.448718 617.683512 630.448718c17.872761 0 32.309849 14.441119 32.309849 32.31892 0 17.878808-14.43608 32.542656-32.309849 32.542656-17.872761 0-32.314888-14.669895-32.314888-32.542656C585.363585 644.884798 599.809743 630.448718 617.683512 630.448718L617.683512 630.448718 617.683512 630.448718zM617.683512 630.448718" p-id="10584"/></svg>