<svg xmlns="http://www.w3.org/2000/svg" width="200" height="200" class="icon" p-id="14045" t="1612865536164" version="1.1" viewBox="0 0 1024 1024"><path fill="#1afa29" d="M723.3536 890.88H300.6464a90.112 90.112 0 0 1-90.112-90.112V493.9776a90.112 90.112 0 0 1 90.112-90.112h422.7072a90.112 90.112 0 0 1 90.112 90.112V800.768a90.112 90.112 0 0 1-90.112 90.112zM300.6464 465.3056c-15.7696 0-28.672 12.9024-28.672 28.672V800.768c0 15.7696 12.9024 28.672 28.672 28.672h422.7072c15.7696 0 28.672-12.9024 28.672-28.672V493.9776c0-15.7696-12.9024-28.672-28.672-28.672H300.6464z" p-id="14046"/><path fill="#1afa29" d="M357.1712 465.3056c-16.9984 0-30.72-13.7216-30.72-30.72v-116.1216c0-102.1952 83.1488-185.5488 185.5488-185.5488s185.5488 83.1488 185.5488 185.5488c0 16.9984-13.7216 30.72-30.72 30.72s-30.72-13.7216-30.72-30.72c0-68.4032-55.7056-124.1088-124.1088-124.1088s-124.1088 55.7056-124.1088 124.1088v116.1216c0 16.9984-13.7216 30.72-30.72 30.72z" p-id="14047"/><path fill="#1afa29" d="M512 761.0368c-49.7664 0-88.6784-49.9712-88.6784-113.664s38.912-113.664 88.6784-113.664 88.6784 49.9712 88.6784 113.664-38.912 113.664-88.6784 113.664z m0-165.888c-11.0592 0-27.2384 20.2752-27.2384 52.224s16.1792 52.224 27.2384 52.224 27.2384-20.2752 27.2384-52.224-16.1792-52.224-27.2384-52.224z" p-id="14048"/></svg>